<?xml version="1.0" encoding="utf-8"?>
<!-- Generator: Adobe Illustrator 16.0.0, SVG Export Plug-In . SVG Version: 6.00 Build 0)  -->
<!DOCTYPE svg PUBLIC "-//W3C//DTD SVG 1.1//EN" "http://www.w3.org/Graphics/SVG/1.1/DTD/svg11.dtd">
<svg version="1.1" id="Layer_1" xmlns="http://www.w3.org/2000/svg" xmlns:xlink="http://www.w3.org/1999/xlink" x="0px" y="0px"
	 width="78.195px" height="43.072px" viewBox="0 0 78.195 43.072" enable-background="new 0 0 78.195 43.072" xml:space="preserve">
<g>
	<path fill="#6B3293" d="M4.83,21.127v1.269c0,1.094,0.286,1.987,0.866,2.68c0.576,0.691,1.337,1.035,2.277,1.035
		c1.11,0,1.977-0.428,2.589-1.29c0.613-0.86,0.925-2.082,0.925-3.661c0-2.791-1.088-4.181-3.255-4.181
		c-0.999,0-1.816,0.38-2.452,1.136C5.147,18.876,4.83,19.881,4.83,21.127 M4.967,27.627H4.903v8.517H0.016V13.619h4.888v2.383h0.063
		c1.21-1.844,2.906-2.77,5.094-2.77c2.057,0,3.642,0.703,4.761,2.114c1.12,1.406,1.681,3.323,1.681,5.749
		c0,2.643-0.656,4.762-1.96,6.363c-1.306,1.601-3.044,2.398-5.21,2.398C7.424,29.857,5.971,29.117,4.967,27.627z"/>
	<path opacity="0.65" fill="#662D91" enable-background="new    " d="M32.417,18.191c-0.592-0.321-1.338-0.479-2.121-0.479
		c-1.063,0-1.893,0.391-2.494,1.167c-0.597,0.782-0.899,1.839-0.899,3.181v7.573h-4.888V13.779h4.888v2.943h0.064
		c0.776-2.151,2.167-3.224,4.18-3.224c0.519,0,0.979,0.025,1.271,0.147V18.191z"/>
	<path fill="#E9158E" d="M37.233,21.113v1.269c0,1.094,0.285,1.987,0.866,2.68c0.576,0.692,1.337,1.036,2.278,1.036
		c1.108,0,1.977-0.428,2.589-1.29s0.924-2.082,0.924-3.662c0-2.79-1.088-4.18-3.254-4.18c-0.999,0-1.818,0.38-2.452,1.136
		C37.55,18.861,37.233,19.866,37.233,21.113 M37.371,27.613h-0.063v8.518H32.42V13.604h4.888v2.383h0.063
		c1.21-1.844,2.905-2.769,5.094-2.769c2.056,0,3.642,0.703,4.762,2.114c1.12,1.404,1.681,3.322,1.681,5.749
		c0,2.642-0.655,4.761-1.961,6.361c-1.305,1.603-3.044,2.399-5.21,2.399C39.828,29.842,38.375,29.103,37.371,27.613z"/>
	<path d="M78.196,13.356v0.568h-2.042c-0.394,0-0.678,0.062-0.853,0.183c-0.177,0.122-0.264,0.326-0.264,0.613
		c0,0.243,0.11,0.45,0.333,0.62s0.487,0.256,0.798,0.256h2.027v0.568h-2.11c-0.699,0-1.048,0.271-1.048,0.81
		c0,0.25,0.104,0.455,0.313,0.618c0.21,0.162,0.482,0.243,0.817,0.243h2.027v0.569H74.64v-0.569h0.563V17.82
		c-0.433-0.251-0.646-0.619-0.646-1.103c0-0.243,0.067-0.455,0.203-0.635c0.135-0.182,0.313-0.306,0.534-0.372
		c-0.491-0.264-0.736-0.657-0.736-1.182c0-0.781,0.482-1.173,1.447-1.173H78.196z M75.037,20.65c0,0.365,0.124,0.654,0.374,0.868
		c0.249,0.213,0.59,0.32,1.028,0.32c0.421,0,0.752-0.108,0.996-0.323c0.243-0.216,0.365-0.504,0.365-0.864
		c0-0.369-0.12-0.651-0.358-0.85c-0.237-0.198-0.576-0.296-1.017-0.296c-0.444,0-0.787,0.098-1.027,0.296
		C75.158,19.998,75.037,20.281,75.037,20.65z M78.279,20.691c0,0.525-0.166,0.944-0.497,1.258c-0.332,0.313-0.773,0.472-1.322,0.472
		c-0.598,0-1.063-0.164-1.399-0.49c-0.335-0.327-0.502-0.768-0.502-1.324c0-0.529,0.163-0.942,0.489-1.241
		c0.326-0.298,0.779-0.445,1.356-0.445c0.568,0,1.021,0.16,1.363,0.479C78.109,19.722,78.279,20.152,78.279,20.691z M78.033,22.645
		c0.165,0.272,0.246,0.598,0.246,0.973c0,0.507-0.164,0.916-0.493,1.228c-0.33,0.31-0.758,0.466-1.284,0.466
		c-0.585,0-1.057-0.168-1.412-0.503c-0.354-0.335-0.532-0.783-0.532-1.344c0-0.313,0.059-0.587,0.173-0.826h0.583
		c-0.185,0.265-0.276,0.546-0.276,0.848c0,0.363,0.13,0.661,0.391,0.895c0.259,0.231,0.602,0.35,1.025,0.35
		c0.417,0,0.745-0.109,0.985-0.329c0.24-0.219,0.361-0.512,0.361-0.88c0-0.31-0.104-0.602-0.309-0.874h0.542V22.645z"/>
	<path d="M76.431,26.701c0.751,0,1.36,0.608,1.36,1.359s-0.609,1.36-1.36,1.36s-1.359-0.609-1.359-1.36S75.68,26.701,76.431,26.701"
		/>
	<path opacity="0.65" fill="#EC008C" enable-background="new    " d="M26.938,29.632h-4.877v-2.415h-0.074
		c-1.21,1.865-2.821,2.8-4.845,2.8c-3.678,0-5.512-2.225-5.512-6.668v-9.57h4.877v9.138c0,2.234,0.888,3.354,2.664,3.354
		c0.877,0,1.574-0.307,2.103-0.92s0.788-1.448,0.788-2.499v-9.073h4.877L26.938,29.632L26.938,29.632z"/>
	<path opacity="0.76" fill="#8C2D91" enable-background="new    " d="M48.903,24.14c0,0.668,0.158,1.179,0.479,1.521
		c0.321,0.342,0.748,0.516,1.279,0.516c0.268,0,0.537-0.026,0.8-0.079c0.269-0.047,0.538-0.1,0.806-0.152v3.428
		c-0.589,0.152-1.205,0.278-1.857,0.374c-0.653,0.1-1.338,0.146-2.043,0.146c-0.647,0-1.237-0.104-1.77-0.321
		c-0.526-0.216-0.979-0.526-1.358-0.937c-0.373-0.406-0.663-0.895-0.868-1.469c-0.206-0.579-0.312-1.227-0.312-1.948V6.113h4.843
		L48.903,24.14L48.903,24.14z"/>
	<path fill="#672676" d="M55.138,18.051c0,0.668,0.158,1.18,0.479,1.521c0.32,0.343,0.748,0.517,1.278,0.517
		c0.27,0,0.537-0.026,0.8-0.079c0.27-0.047,0.537-0.1,0.806-0.152v3.428c-0.589,0.152-1.206,0.278-1.858,0.374
		c-0.651,0.1-1.337,0.146-2.042,0.146c-0.646,0-1.237-0.104-1.769-0.321c-0.526-0.216-0.979-0.525-1.358-0.937
		c-0.374-0.405-0.664-0.896-0.869-1.469c-0.205-0.579-0.31-1.228-0.31-1.948V0.025h4.843V18.051z"/>
	<path fill="#CF128C" d="M68.028,19.991c0-2.259-0.916-3.392-2.749-3.392c-0.778,0-1.458,0.322-2.025,0.969
		c-0.574,0.648-0.916,1.458-1.042,2.422L68.028,19.991L68.028,19.991z M72.545,22.986H62.243c0.162,2.29,1.61,3.438,4.333,3.438
		c1.737,0,3.264-0.41,4.58-1.232v3.518c-1.458,0.778-3.354,1.169-5.691,1.169c-2.548,0-4.527-0.706-5.938-2.122
		c-1.405-1.411-2.111-3.385-2.111-5.912c0-2.622,0.759-4.702,2.286-6.234c1.521-1.531,3.39-2.295,5.61-2.295
		c2.301,0,4.085,0.685,5.345,2.048c1.258,1.369,1.89,3.228,1.89,5.57L72.545,22.986L72.545,22.986z"/>
</g>
<g>
	<path fill="#672677" d="M0.606,37.113v4.464H0.03v-4.464H0.606z"/>
	<path fill="#672677" d="M1.659,39.239c0-0.331-0.007-0.603-0.026-0.867H2.15l0.033,0.529h0.013c0.159-0.305,0.53-0.603,1.06-0.603
		c0.443,0,1.132,0.266,1.132,1.364v1.914H3.805v-1.848c0-0.517-0.192-0.947-0.742-0.947c-0.384,0-0.682,0.271-0.781,0.597
		c-0.026,0.072-0.04,0.172-0.04,0.271v1.927H1.659V39.239z"/>
	<path fill="#672677" d="M8.104,36.874v3.874c0,0.285,0.007,0.609,0.026,0.828H7.608L7.581,41.02H7.568
		c-0.179,0.358-0.57,0.63-1.093,0.63c-0.775,0-1.371-0.656-1.371-1.63c-0.006-1.065,0.656-1.722,1.437-1.722
		c0.49,0,0.821,0.232,0.967,0.49h0.013v-1.914H8.104z M7.522,39.676c0-0.073-0.007-0.173-0.027-0.245
		c-0.086-0.371-0.404-0.676-0.841-0.676c-0.603,0-0.96,0.53-0.96,1.238c0,0.649,0.318,1.186,0.947,1.186
		c0.391,0,0.748-0.258,0.854-0.695c0.02-0.079,0.027-0.159,0.027-0.252V39.676z"/>
	<path fill="#672677" d="M9.721,37.471c0.007,0.198-0.139,0.357-0.371,0.357C9.145,37.828,9,37.669,9,37.471
		c0-0.206,0.152-0.364,0.364-0.364C9.582,37.107,9.721,37.265,9.721,37.471z M9.073,41.576v-3.205h0.583v3.205H9.073z"/>
	<path fill="#672677" d="M12.398,41.576l-0.046-0.404h-0.02c-0.179,0.252-0.523,0.478-0.98,0.478c-0.649,0-0.98-0.457-0.98-0.921
		c0-0.774,0.688-1.198,1.927-1.192v-0.065c0-0.266-0.073-0.742-0.729-0.742c-0.298,0-0.609,0.093-0.834,0.238l-0.133-0.384
		c0.265-0.172,0.649-0.285,1.053-0.285c0.98,0,1.218,0.669,1.218,1.312v1.198c0,0.278,0.013,0.55,0.053,0.769H12.398z
		 M12.312,39.941c-0.636-0.014-1.358,0.1-1.358,0.722c0,0.378,0.252,0.557,0.55,0.557c0.417,0,0.682-0.265,0.775-0.536
		c0.02-0.06,0.033-0.126,0.033-0.186V39.941z"/>
	<path fill="#672677" d="M14.332,37.04c-0.152,0.556-0.437,1.265-0.622,1.569l-0.371,0.046c0.146-0.391,0.318-1.079,0.391-1.556
		L14.332,37.04z"/>
	<path fill="#672677" d="M14.412,40.981c0.172,0.112,0.477,0.231,0.769,0.231c0.424,0,0.622-0.212,0.622-0.477
		c0-0.278-0.166-0.431-0.596-0.59c-0.576-0.205-0.848-0.522-0.848-0.907c0-0.517,0.417-0.94,1.106-0.94
		c0.324,0,0.609,0.093,0.788,0.199l-0.146,0.424c-0.125-0.08-0.357-0.186-0.655-0.186c-0.345,0-0.537,0.198-0.537,0.437
		c0,0.266,0.192,0.385,0.609,0.543c0.556,0.212,0.841,0.49,0.841,0.968c0,0.563-0.437,0.96-1.199,0.96
		c-0.351,0-0.675-0.086-0.9-0.219L14.412,40.981z"/>
	<path fill="#672677" d="M18.652,41.576l0.172-1.298h-0.543v-0.391h0.603l0.126-0.96h-0.57v-0.392h0.629l0.172-1.265h0.384
		l-0.166,1.265h0.688l0.172-1.265h0.391l-0.166,1.265h0.543v0.392h-0.603l-0.119,0.96h0.569v0.391h-0.629l-0.172,1.298h-0.397
		l0.172-1.298h-0.688l-0.172,1.298H18.652z M19.97,39.888l0.126-0.96h-0.689l-0.125,0.96H19.97z"/>
	<path fill="#672677" d="M22.892,37.815h-0.013l-0.749,0.404l-0.112-0.443l0.94-0.504h0.497v4.305h-0.563V37.815z"/>
	<path fill="#672677" d="M26.635,37.172c0.251-0.053,0.649-0.092,1.053-0.092c0.576,0,0.947,0.099,1.225,0.324
		c0.232,0.172,0.371,0.437,0.371,0.788c0,0.431-0.285,0.808-0.755,0.979v0.014c0.424,0.105,0.92,0.457,0.92,1.119
		c0,0.384-0.152,0.676-0.377,0.894c-0.312,0.285-0.814,0.418-1.543,0.418c-0.397,0-0.702-0.026-0.894-0.054V37.172z M27.211,39
		h0.523c0.609,0,0.967-0.317,0.967-0.748c0-0.523-0.397-0.729-0.98-0.729c-0.265,0-0.417,0.02-0.51,0.04V39z M27.211,41.139
		c0.112,0.021,0.278,0.027,0.483,0.027c0.596,0,1.146-0.219,1.146-0.868c0-0.609-0.523-0.86-1.152-0.86h-0.477V41.139z"/>
	<path fill="#672677" d="M30.557,40.079c0.013,0.788,0.517,1.113,1.099,1.113c0.417,0,0.669-0.073,0.887-0.166l0.1,0.417
		c-0.206,0.093-0.556,0.199-1.066,0.199c-0.987,0-1.576-0.649-1.576-1.616s0.57-1.729,1.503-1.729c1.046,0,1.325,0.921,1.325,1.51
		c0,0.119-0.014,0.212-0.02,0.271H30.557z M32.265,39.662c0.006-0.371-0.152-0.947-0.808-0.947c-0.589,0-0.848,0.544-0.894,0.947
		H32.265z"/>
	<path fill="#672677" d="M35.326,41.576l-0.046-0.404h-0.02c-0.179,0.252-0.523,0.478-0.98,0.478c-0.649,0-0.98-0.457-0.98-0.921
		c0-0.774,0.688-1.198,1.927-1.192v-0.065c0-0.266-0.073-0.742-0.728-0.742c-0.298,0-0.609,0.093-0.834,0.238l-0.133-0.384
		c0.265-0.172,0.649-0.285,1.053-0.285c0.98,0,1.218,0.669,1.218,1.312v1.198c0,0.278,0.013,0.55,0.053,0.769H35.326z M35.24,39.941
		c-0.636-0.014-1.357,0.1-1.357,0.722c0,0.378,0.252,0.557,0.55,0.557c0.417,0,0.682-0.265,0.775-0.536
		c0.02-0.06,0.033-0.126,0.033-0.186V39.941z"/>
	<path fill="#672677" d="M39.427,40.702c0,0.331,0.006,0.622,0.026,0.874h-0.517l-0.033-0.523H38.89
		c-0.152,0.259-0.49,0.597-1.06,0.597c-0.503,0-1.106-0.278-1.106-1.404v-1.874h0.583v1.774c0,0.609,0.186,1.021,0.715,1.021
		c0.391,0,0.662-0.271,0.768-0.53c0.033-0.086,0.053-0.192,0.053-0.298v-1.967h0.583V40.702z"/>
	<path fill="#672677" d="M41.097,37.45v0.921h0.834v0.443h-0.834v1.729c0,0.397,0.112,0.623,0.437,0.623
		c0.152,0,0.266-0.021,0.338-0.04l0.026,0.437c-0.112,0.047-0.291,0.08-0.517,0.08c-0.271,0-0.489-0.086-0.629-0.245
		c-0.165-0.172-0.225-0.457-0.225-0.835v-1.748h-0.497v-0.443h0.497v-0.769L41.097,37.45z"/>
	<path fill="#672677" d="M42.859,38.371l0.702,1.894c0.072,0.212,0.152,0.464,0.205,0.656h0.014c0.06-0.192,0.125-0.438,0.205-0.669
		l0.636-1.881h0.616l-0.875,2.284c-0.417,1.1-0.701,1.663-1.099,2.007c-0.285,0.252-0.569,0.352-0.716,0.378l-0.146-0.49
		c0.146-0.047,0.338-0.14,0.51-0.285c0.159-0.126,0.357-0.351,0.49-0.648c0.026-0.06,0.047-0.106,0.047-0.14
		s-0.014-0.079-0.04-0.152l-1.186-2.953H42.859z"/>
	<path fill="#672677" d="M47.191,37.172c0.352-0.053,0.769-0.092,1.226-0.092c0.828,0,1.417,0.191,1.808,0.556
		c0.397,0.364,0.629,0.881,0.629,1.603c0,0.729-0.225,1.324-0.642,1.735c-0.418,0.417-1.106,0.643-1.974,0.643
		c-0.411,0-0.755-0.021-1.047-0.054V37.172z M47.767,41.119c0.146,0.026,0.358,0.033,0.583,0.033c1.231,0,1.9-0.688,1.9-1.894
		c0.007-1.054-0.589-1.723-1.808-1.723c-0.298,0-0.523,0.027-0.676,0.06V41.119z"/>
	<path fill="#672677" d="M51.935,40.079c0.014,0.788,0.517,1.113,1.1,1.113c0.417,0,0.669-0.073,0.888-0.166l0.099,0.417
		c-0.205,0.093-0.556,0.199-1.065,0.199c-0.987,0-1.576-0.649-1.576-1.616s0.569-1.729,1.503-1.729c1.046,0,1.324,0.921,1.324,1.51
		c0,0.119-0.013,0.212-0.02,0.271H51.935z M53.644,39.662c0.007-0.371-0.152-0.947-0.808-0.947c-0.59,0-0.848,0.544-0.895,0.947
		H53.644z"/>
	<path fill="#672677" d="M54.85,40.981c0.172,0.112,0.477,0.231,0.768,0.231c0.424,0,0.623-0.212,0.623-0.477
		c0-0.278-0.166-0.431-0.597-0.59c-0.576-0.205-0.848-0.522-0.848-0.907c0-0.517,0.418-0.94,1.106-0.94
		c0.324,0,0.609,0.093,0.788,0.199l-0.146,0.424c-0.126-0.08-0.358-0.186-0.656-0.186c-0.344,0-0.536,0.198-0.536,0.437
		c0,0.266,0.192,0.385,0.609,0.543c0.557,0.212,0.841,0.49,0.841,0.968c0,0.563-0.437,0.96-1.198,0.96
		c-0.352,0-0.676-0.086-0.901-0.219L54.85,40.981z"/>
	<path fill="#672677" d="M58.255,37.45v0.921h0.834v0.443h-0.834v1.729c0,0.397,0.112,0.623,0.437,0.623
		c0.152,0,0.266-0.021,0.338-0.04l0.026,0.437c-0.112,0.047-0.291,0.08-0.517,0.08c-0.271,0-0.489-0.086-0.629-0.245
		c-0.165-0.172-0.225-0.457-0.225-0.835v-1.748h-0.497v-0.443h0.497v-0.769L58.255,37.45z"/>
	<path fill="#672677" d="M60.395,37.471c0.006,0.198-0.14,0.357-0.371,0.357c-0.205,0-0.352-0.159-0.352-0.357
		c0-0.206,0.152-0.364,0.364-0.364C60.255,37.107,60.395,37.265,60.395,37.471z M59.745,41.576v-3.205h0.583v3.205H59.745z"/>
	<path fill="#672677" d="M61.295,39.239c0-0.331-0.007-0.603-0.026-0.867h0.517l0.033,0.529h0.013
		c0.159-0.305,0.53-0.603,1.06-0.603c0.444,0,1.133,0.266,1.133,1.364v1.914h-0.583v-1.848c0-0.517-0.192-0.947-0.741-0.947
		c-0.385,0-0.683,0.271-0.782,0.597c-0.026,0.072-0.039,0.172-0.039,0.271v1.927h-0.583V39.239z"/>
	<path fill="#672677" d="M66.746,41.576L66.7,41.172h-0.02c-0.179,0.252-0.523,0.478-0.98,0.478c-0.649,0-0.98-0.457-0.98-0.921
		c0-0.774,0.689-1.198,1.928-1.192v-0.065c0-0.266-0.073-0.742-0.729-0.742c-0.298,0-0.609,0.093-0.835,0.238l-0.132-0.384
		c0.265-0.172,0.648-0.285,1.053-0.285c0.98,0,1.219,0.669,1.219,1.312v1.198c0,0.278,0.013,0.55,0.053,0.769H66.746z M66.66,39.941
		c-0.636-0.014-1.357,0.1-1.357,0.722c0,0.378,0.252,0.557,0.55,0.557c0.417,0,0.682-0.265,0.774-0.536
		c0.021-0.06,0.033-0.126,0.033-0.186V39.941z"/>
	<path fill="#672677" d="M68.841,37.45v0.921h0.834v0.443h-0.834v1.729c0,0.397,0.112,0.623,0.437,0.623
		c0.152,0,0.266-0.021,0.338-0.04l0.026,0.437c-0.112,0.047-0.291,0.08-0.517,0.08c-0.271,0-0.489-0.086-0.629-0.245
		c-0.165-0.172-0.225-0.457-0.225-0.835v-1.748h-0.497v-0.443h0.497v-0.769L68.841,37.45z"/>
	<path fill="#672677" d="M70.982,37.471c0.006,0.198-0.14,0.357-0.371,0.357c-0.205,0-0.352-0.159-0.352-0.357
		c0-0.206,0.152-0.364,0.364-0.364C70.842,37.107,70.982,37.265,70.982,37.471z M70.332,41.576v-3.205h0.583v3.205H70.332z"/>
	<path fill="#672677" d="M74.782,39.948c0,1.186-0.821,1.702-1.596,1.702c-0.867,0-1.536-0.636-1.536-1.649
		c0-1.072,0.701-1.702,1.589-1.702C74.16,38.298,74.782,38.967,74.782,39.948z M72.24,39.981c0,0.702,0.404,1.231,0.974,1.231
		c0.557,0,0.974-0.523,0.974-1.245c0-0.543-0.271-1.231-0.96-1.231C72.537,38.736,72.24,39.371,72.24,39.981z"/>
	<path fill="#672677" d="M75.519,39.239c0-0.331-0.007-0.603-0.026-0.867h0.517l0.033,0.529h0.013
		c0.159-0.305,0.53-0.603,1.06-0.603c0.444,0,1.133,0.266,1.133,1.364v1.914h-0.583v-1.848c0-0.517-0.191-0.947-0.741-0.947
		c-0.385,0-0.683,0.271-0.782,0.597c-0.026,0.072-0.039,0.172-0.039,0.271v1.927h-0.583V39.239z"/>
</g>
</svg>
